<?xml version="1.0" encoding="UTF-8" standalone="no" ?>
<!DOCTYPE svg PUBLIC "-//W3C//DTD SVG 1.1//EN" "http://www.w3.org/Graphics/SVG/1.1/DTD/svg11.dtd">
<svg xmlns="http://www.w3.org/2000/svg" xmlns:xlink="http://www.w3.org/1999/xlink" version="1.1" width="1200" height="500" viewBox="0 0 1200 500" xml:space="preserve">
<desc>Created with Fabric.js 4.6.0</desc>
<defs>
</defs>
<g transform="matrix(1.28 0 0 1.28 514.69 468.83)" id="dzy5t4BtRXnp3x2taXit2"  >
<path style="stroke: rgb(39,114,159); stroke-width: 4; stroke-dasharray: none; stroke-linecap: butt; stroke-dashoffset: 0; stroke-linejoin: miter; stroke-miterlimit: 4; fill: rgb(255,255,255); fill-opacity: 0; fill-rule: nonzero; opacity: 1;" vector-effect="non-scaling-stroke"  transform=" translate(0, 0)" d="M -240.86022 16.41046 C -240.86022 16.41046 -162.3656 -34.12717 -55.91398000000001 -13.69707 C 50.53762999999999 6.733039999999999 240.86020999999997 18.56099 240.86020999999997 18.56099" stroke-linecap="round" />
</g>
<g transform="matrix(1.28 0 0 1.28 1004.55 274.03)" id="kzGFYytJ_Wj8-uW34aRiA"  >
<path style="stroke: rgb(159,39,39); stroke-width: 4; stroke-dasharray: none; stroke-linecap: butt; stroke-dashoffset: 0; stroke-linejoin: miter; stroke-miterlimit: 4; fill: rgb(255,255,255); fill-opacity: 0; fill-rule: nonzero; opacity: 1;" vector-effect="non-scaling-stroke"  transform=" translate(0, 0)" d="M -131.72043 18.27957 C -65.05376 7.52688 0.5376300000000072 37.63441 131.72043 -18.27957" stroke-linecap="round" />
</g>
<g transform="matrix(1.28 0 0 0.92 1008.85 153.82)" id="U2WwS7eOu5u-mZ50ydZzG"  >
<path style="stroke: rgb(72,148,40); stroke-width: 4; stroke-dasharray: none; stroke-linecap: butt; stroke-dashoffset: 0; stroke-linejoin: miter; stroke-miterlimit: 4; fill: rgb(255,255,255); fill-opacity: 0; fill-rule: nonzero; opacity: 1;" vector-effect="non-scaling-stroke"  transform=" translate(0, 0)" d="M -136.55914 154.30108 C -56.98925000000001 94.08603000000002 56.98925 31.720430000000007 136.55914 -154.30106999999998" stroke-linecap="round" />
</g>
<g transform="matrix(1.28 0 0 1.28 487.83 389.79)" id="nIhKQCuBYKMMNyjQGi-Mc"  >
<path style="stroke: rgb(173,72,13); stroke-width: 5; stroke-dasharray: none; stroke-linecap: butt; stroke-dashoffset: 0; stroke-linejoin: miter; stroke-miterlimit: 4; fill: rgb(255,255,255); fill-opacity: 0; fill-rule: nonzero; opacity: 1;" vector-effect="non-scaling-stroke"  transform=" translate(0, 0)" d="M -273.11828 73.112 C -273.11828 73.112 34.40859999999998 77.41308 273.11828 -73.12456" stroke-linecap="round" />
</g>
<g transform="matrix(1.28 0 0 1.28 826.82 305.12)" id="qhAWwDIRmRNfO2ziCDeYW"  >
<path style="stroke: rgb(72,148,40); stroke-width: 1; stroke-dasharray: none; stroke-linecap: butt; stroke-dashoffset: 0; stroke-linejoin: miter; stroke-miterlimit: 4; fill: rgb(255,255,255); fill-opacity: 0; fill-rule: nonzero; opacity: 1;" vector-effect="non-scaling-stroke"  transform=" translate(0, 0)" d="M 0 0" stroke-linecap="round" />
</g>
<g transform="matrix(1.29 0 0 0.92 1006.77 240.73)" id="nsaBSxG4xuOHFVfCy1kfx"  >
<path style="stroke: rgb(173,72,13); stroke-width: 5; stroke-dasharray: none; stroke-linecap: butt; stroke-dashoffset: 0; stroke-linejoin: miter; stroke-miterlimit: 4; fill: rgb(255,255,255); fill-opacity: 0; fill-rule: nonzero; opacity: 1;" vector-effect="non-scaling-stroke"  transform=" translate(0, 0)" d="M -133.33333 61.82796 C -133.33333 61.82796 61.29033000000001 36.02150999999999 133.33334000000002 -61.82795000000001" stroke-linecap="round" />
</g>
<g transform="matrix(2.38 -0.05 0 2.38 139.84 487.38)" id="RcmFBNxlBQCCzoSD2i5N0"  >
<path style="stroke: rgb(255,255,255); stroke-width: 2; stroke-dasharray: none; stroke-linecap: butt; stroke-dashoffset: 0; stroke-linejoin: miter; stroke-miterlimit: 4; fill: rgb(255,255,255); fill-opacity: 0; fill-rule: nonzero; opacity: 1;" vector-effect="non-scaling-stroke"  transform=" translate(0, 0)" d="M 0 3.57143 L 0 -3.57143" stroke-linecap="round" />
</g>
<g transform="matrix(2.37 -0.05 0 2.37 209.82 487.32)" id="e8Kp-cVQqek9JQS2YwTVT"  >
<path style="stroke: rgb(255,255,255); stroke-width: 2; stroke-dasharray: none; stroke-linecap: butt; stroke-dashoffset: 0; stroke-linejoin: miter; stroke-miterlimit: 4; fill: rgb(255,255,255); fill-opacity: 0; fill-rule: nonzero; opacity: 0.51;" vector-effect="non-scaling-stroke"  transform=" translate(0, 0)" d="M 0 3.57143 L 0 -3.57143" stroke-linecap="round" />
</g>
<g transform="matrix(2.37 -0.05 0 2.37 350.22 486.91)" id="aadV9jUhtdM5c4TJh11r4"  >
<path style="stroke: rgb(255,255,255); stroke-width: 2; stroke-dasharray: none; stroke-linecap: butt; stroke-dashoffset: 0; stroke-linejoin: miter; stroke-miterlimit: 4; fill: rgb(255,255,255); fill-opacity: 0; fill-rule: nonzero; opacity: 0.51;" vector-effect="non-scaling-stroke"  transform=" translate(0, 0)" d="M 0 3.57143 L 0 -3.57143" stroke-linecap="round" />
</g>
<g transform="matrix(2.37 -0.05 0 2.37 350.22 486.91)" id="8wOyYEE8ZjFR2q_5K9e6-"  >
<path style="stroke: rgb(255,255,255); stroke-width: 2; stroke-dasharray: none; stroke-linecap: butt; stroke-dashoffset: 0; stroke-linejoin: miter; stroke-miterlimit: 4; fill: rgb(255,255,255); fill-opacity: 0; fill-rule: nonzero; opacity: 0.51;" vector-effect="non-scaling-stroke"  transform=" translate(0, 0)" d="M 0 3.57143 L 0 -3.57143" stroke-linecap="round" />
</g>
<g transform="matrix(2.37 0 0 2.37 420.18 487.34)" id="N60sZIwl630AEyLZX19u9"  >
<path style="stroke: rgb(255,255,255); stroke-width: 2; stroke-dasharray: none; stroke-linecap: butt; stroke-dashoffset: 0; stroke-linejoin: miter; stroke-miterlimit: 4; fill: rgb(255,255,255); fill-opacity: 0; fill-rule: nonzero; opacity: 0.51;" vector-effect="non-scaling-stroke"  transform=" translate(0, 0)" d="M 0 3.57143 L 0 -3.57143" stroke-linecap="round" />
</g>
<g transform="matrix(2.37 0 0 2.37 490.17 487.34)" id="WQWnOhd16iSJOD-eltwVN"  >
<path style="stroke: rgb(255,255,255); stroke-width: 2; stroke-dasharray: none; stroke-linecap: butt; stroke-dashoffset: 0; stroke-linejoin: miter; stroke-miterlimit: 4; fill: rgb(255,255,255); fill-opacity: 0; fill-rule: nonzero; opacity: 0.51;" vector-effect="non-scaling-stroke"  transform=" translate(0, 0)" d="M 0 3.57143 L 0 -3.57143" stroke-linecap="round" />
</g>
<g transform="matrix(2.37 0 0 2.37 560.58 487.08)" id="78ewhA6cRFv1dZCz9_9Of"  >
<path style="stroke: rgb(255,255,255); stroke-width: 2; stroke-dasharray: none; stroke-linecap: butt; stroke-dashoffset: 0; stroke-linejoin: miter; stroke-miterlimit: 4; fill: rgb(255,255,255); fill-opacity: 0; fill-rule: nonzero; opacity: 0.51;" vector-effect="non-scaling-stroke"  transform=" translate(0, 0)" d="M 0 3.57143 L 0 -3.57143" stroke-linecap="round" />
</g>
<g transform="matrix(2.37 0 0 2.37 630.57 487.34)" id="nn_xj35CLoNk-NAD95vTQ"  >
<path style="stroke: rgb(255,255,255); stroke-width: 2; stroke-dasharray: none; stroke-linecap: butt; stroke-dashoffset: 0; stroke-linejoin: miter; stroke-miterlimit: 4; fill: rgb(255,255,255); fill-opacity: 0; fill-rule: nonzero; opacity: 0.51;" vector-effect="non-scaling-stroke"  transform=" translate(0, 0)" d="M 0 3.57143 L 0 -3.57143" stroke-linecap="round" />
</g>
<g transform="matrix(2.39 -0.05 0 2.37 695.62 487.52)" id="XXXIdKWy2UKzL1b2AKOFr"  >
<path style="stroke: rgb(255,255,255); stroke-width: 2; stroke-dasharray: none; stroke-linecap: butt; stroke-dashoffset: 0; stroke-linejoin: miter; stroke-miterlimit: 4; fill: rgb(255,255,255); fill-opacity: 0; fill-rule: nonzero; opacity: 0.51;" vector-effect="non-scaling-stroke"  transform=" translate(0, 0)" d="M 0 3.57143 L 0 -3.57143" stroke-linecap="round" />
</g>
<g transform="matrix(2.37 -0.05 0 2.37 765.6 487.47)" id="9Vsu238i2JpZVBX757n-P"  >
<path style="stroke: rgb(255,255,255); stroke-width: 2; stroke-dasharray: none; stroke-linecap: butt; stroke-dashoffset: 0; stroke-linejoin: miter; stroke-miterlimit: 4; fill: rgb(255,255,255); fill-opacity: 0; fill-rule: nonzero; opacity: 0.51;" vector-effect="non-scaling-stroke"  transform=" translate(0, 0)" d="M 0 3.57143 L 0 -3.57143" stroke-linecap="round" />
</g>
<g transform="matrix(2.37 -0.05 0 2.37 836.02 487.4)" id="wA3HVlVCUpVU2DTE-48mc"  >
<path style="stroke: rgb(255,255,255); stroke-width: 2; stroke-dasharray: none; stroke-linecap: butt; stroke-dashoffset: 0; stroke-linejoin: miter; stroke-miterlimit: 4; fill: rgb(255,255,255); fill-opacity: 0; fill-rule: nonzero; opacity: 0.51;" vector-effect="non-scaling-stroke"  transform=" translate(0, 0)" d="M 0 3.57143 L 0 -3.57143" stroke-linecap="round" />
</g>
<g transform="matrix(2.37 -0.05 0 2.37 906.01 487.34)" id="jWpD1om7TwV0na_mfUYij"  >
<path style="stroke: rgb(255,255,255); stroke-width: 2; stroke-dasharray: none; stroke-linecap: butt; stroke-dashoffset: 0; stroke-linejoin: miter; stroke-miterlimit: 4; fill: rgb(255,255,255); fill-opacity: 0; fill-rule: nonzero; opacity: 0.51;" vector-effect="non-scaling-stroke"  transform=" translate(0, 0)" d="M 0 3.57143 L 0 -3.57143" stroke-linecap="round" />
</g>
<g transform="matrix(2.37 0 0 2.37 975.96 487.48)" id="q6fA7zsi-BE9tyZ6QpcM7"  >
<path style="stroke: rgb(255,255,255); stroke-width: 2; stroke-dasharray: none; stroke-linecap: butt; stroke-dashoffset: 0; stroke-linejoin: miter; stroke-miterlimit: 4; fill: rgb(255,255,255); fill-opacity: 0; fill-rule: nonzero; opacity: 0.51;" vector-effect="non-scaling-stroke"  transform=" translate(0, 0)" d="M 0 3.57143 L 0 -3.57143" stroke-linecap="round" />
</g>
<g transform="matrix(2.37 0 0 2.37 1045.95 487.19)" id="6EVn-Zvu-jqEF8ZRxQfrL"  >
<path style="stroke: rgb(255,255,255); stroke-width: 2; stroke-dasharray: none; stroke-linecap: butt; stroke-dashoffset: 0; stroke-linejoin: miter; stroke-miterlimit: 4; fill: rgb(255,255,255); fill-opacity: 0; fill-rule: nonzero; opacity: 0.51;" vector-effect="non-scaling-stroke"  transform=" translate(0, 0)" d="M 0 3.57143 L 0 -3.57143" stroke-linecap="round" />
</g>
<g transform="matrix(2.37 0 0 2.37 1116.36 487.48)" id="g9COGE96QaSde7X76vQy4"  >
<path style="stroke: rgb(255,255,255); stroke-width: 2; stroke-dasharray: none; stroke-linecap: butt; stroke-dashoffset: 0; stroke-linejoin: miter; stroke-miterlimit: 4; fill: rgb(255,255,255); fill-opacity: 0; fill-rule: nonzero; opacity: 0.51;" vector-effect="non-scaling-stroke"  transform=" translate(0, 0)" d="M 0 3.57143 L 0 -3.57143" stroke-linecap="round" />
</g>
<g transform="matrix(2.37 0 0 2.37 1186.35 487.19)" id="jPqFI42W71D3VT289lGOS"  >
<path style="stroke: rgb(255,255,255); stroke-width: 2; stroke-dasharray: none; stroke-linecap: butt; stroke-dashoffset: 0; stroke-linejoin: miter; stroke-miterlimit: 4; fill: rgb(255,255,255); fill-opacity: 0; fill-rule: nonzero; opacity: 0.51;" vector-effect="non-scaling-stroke"  transform=" translate(0, 0)" d="M 0 3.57143 L 0 -3.57143" stroke-linecap="round" />
</g>
<g transform="matrix(2.37 -0.05 0 2.37 281.73 487.72)" id="Ta7tEgu5Qn4Hf_ly4ItTv"  >
<path style="stroke: rgb(255,255,255); stroke-width: 2; stroke-dasharray: none; stroke-linecap: butt; stroke-dashoffset: 0; stroke-linejoin: miter; stroke-miterlimit: 4; fill: rgb(255,255,255); fill-opacity: 0; fill-rule: nonzero; opacity: 0.51;" vector-effect="non-scaling-stroke"  transform=" translate(0, 0)" d="M 0 3.57143 L 0 -3.57143" stroke-linecap="round" />
</g>
</svg>